<?xml version="1.0" standalone="no"?>
<!DOCTYPE svg PUBLIC "-//W3C//DTD SVG 20010904//EN"
 "http://www.w3.org/TR/2001/REC-SVG-20010904/DTD/svg10.dtd">
<svg version="1.0" xmlns="http://www.w3.org/2000/svg"
 width="125.000000pt" height="125.000000pt" viewBox="0 0 125.000000 125.000000"
 preserveAspectRatio="xMidYMid meet">
<metadata>
Created by potrace 1.14, written by Peter Selinger 2001-2017
</metadata>
<g transform="translate(0.000000,125.000000) scale(0.100000,-0.100000)"
fill="#000000" stroke="none">
<path d="M609 1246 c-2 -3 -34 -7 -71 -10 -86 -7 -158 -25 -165 -42 -3 -8 -11
-14 -19 -14 -8 0 -14 -4 -14 -10 0 -5 -5 -10 -11 -10 -12 0 -59 -50 -59 -62 0
-4 -11 -23 -23 -42 -22 -31 -24 -49 -30 -190 -5 -118 -3 -167 8 -201 12 -43
12 -45 -4 -40 -10 3 -24 -1 -31 -10 -16 -19 -5 -114 19 -170 18 -41 82 -105
105 -105 7 0 19 -19 26 -42 18 -61 44 -109 76 -142 l29 -29 -30 -21 c-16 -11
-47 -38 -70 -58 l-40 -37 475 0 475 0 -73 24 c-41 13 -81 30 -91 39 -10 9 -23
16 -30 16 -33 0 -60 33 -71 85 -8 40 -19 61 -42 80 -29 25 -30 29 -25 78 4 29
13 57 22 63 47 35 73 85 85 167 15 98 5 133 -34 123 -20 -5 -22 -2 -18 25 2
17 0 63 -6 102 -6 40 -14 109 -18 155 -4 52 -12 88 -21 97 -11 12 -12 15 -1
15 8 1 6 6 -6 15 -11 8 -16 15 -11 15 5 0 -14 16 -43 36 -29 20 -52 41 -52 46
0 5 -5 6 -10 3 -6 -3 -17 1 -25 9 -9 8 -23 12 -32 9 -12 -5 -14 -3 -8 7 6 10
2 11 -19 6 -14 -3 -26 -3 -26 1 0 5 -15 8 -32 7 -18 0 -38 3 -44 8 -6 4 -13 6
-15 4z"/>
</g>
</svg>
